<mxfile host="app.diagrams.net" modified="2022-07-21T22:03:51.430Z" agent="5.0 (Windows NT 10.0; Win64; x64) AppleWebKit/537.36 (KHTML, like Gecko) Chrome/103.0.5060.114 Safari/537.36 Edg/103.0.1264.62" etag="GEukDBgmlym29XVXRt5-" version="17.5.0" type="github">
  <diagram id="C5RBs43oDa-KdzZeNtuy" name="Page-1">
    <mxGraphModel dx="867" dy="1262" grid="1" gridSize="10" guides="1" tooltips="1" connect="1" arrows="1" fold="1" page="1" pageScale="1" pageWidth="827" pageHeight="1169" math="0" shadow="0">
      <root>
        <mxCell id="WIyWlLk6GJQsqaUBKTNV-0" />
        <mxCell id="WIyWlLk6GJQsqaUBKTNV-1" parent="WIyWlLk6GJQsqaUBKTNV-0" />
        <mxCell id="crBqIdSOHcmd_bzMWNhx-5" value="" style="edgeStyle=orthogonalEdgeStyle;rounded=0;orthogonalLoop=1;jettySize=auto;html=1;" edge="1" parent="WIyWlLk6GJQsqaUBKTNV-1" source="crBqIdSOHcmd_bzMWNhx-1" target="crBqIdSOHcmd_bzMWNhx-2">
          <mxGeometry relative="1" as="geometry" />
        </mxCell>
        <mxCell id="crBqIdSOHcmd_bzMWNhx-1" value="Loading Introductory Page" style="rounded=1;whiteSpace=wrap;html=1;" vertex="1" parent="WIyWlLk6GJQsqaUBKTNV-1">
          <mxGeometry x="390" y="130" width="120" height="60" as="geometry" />
        </mxCell>
        <mxCell id="crBqIdSOHcmd_bzMWNhx-4" value="" style="edgeStyle=orthogonalEdgeStyle;rounded=0;orthogonalLoop=1;jettySize=auto;html=1;" edge="1" parent="WIyWlLk6GJQsqaUBKTNV-1" source="crBqIdSOHcmd_bzMWNhx-2">
          <mxGeometry relative="1" as="geometry">
            <mxPoint x="590" y="280" as="targetPoint" />
          </mxGeometry>
        </mxCell>
        <mxCell id="crBqIdSOHcmd_bzMWNhx-10" value="" style="edgeStyle=orthogonalEdgeStyle;rounded=0;orthogonalLoop=1;jettySize=auto;html=1;" edge="1" parent="WIyWlLk6GJQsqaUBKTNV-1" source="crBqIdSOHcmd_bzMWNhx-2" target="crBqIdSOHcmd_bzMWNhx-8">
          <mxGeometry relative="1" as="geometry" />
        </mxCell>
        <mxCell id="crBqIdSOHcmd_bzMWNhx-2" value="Login to account" style="rounded=1;whiteSpace=wrap;html=1;" vertex="1" parent="WIyWlLk6GJQsqaUBKTNV-1">
          <mxGeometry x="390" y="250" width="120" height="60" as="geometry" />
        </mxCell>
        <mxCell id="crBqIdSOHcmd_bzMWNhx-7" value="" style="edgeStyle=orthogonalEdgeStyle;rounded=0;orthogonalLoop=1;jettySize=auto;html=1;" edge="1" parent="WIyWlLk6GJQsqaUBKTNV-1">
          <mxGeometry relative="1" as="geometry">
            <mxPoint x="650" y="310" as="sourcePoint" />
            <mxPoint x="650" y="390" as="targetPoint" />
          </mxGeometry>
        </mxCell>
        <mxCell id="crBqIdSOHcmd_bzMWNhx-3" value="Create an Account" style="whiteSpace=wrap;html=1;rounded=1;" vertex="1" parent="WIyWlLk6GJQsqaUBKTNV-1">
          <mxGeometry x="554" y="250" width="120" height="60" as="geometry" />
        </mxCell>
        <mxCell id="crBqIdSOHcmd_bzMWNhx-9" value="" style="edgeStyle=orthogonalEdgeStyle;rounded=0;orthogonalLoop=1;jettySize=auto;html=1;" edge="1" parent="WIyWlLk6GJQsqaUBKTNV-1" target="crBqIdSOHcmd_bzMWNhx-8">
          <mxGeometry relative="1" as="geometry">
            <mxPoint x="590" y="420" as="sourcePoint" />
          </mxGeometry>
        </mxCell>
        <mxCell id="crBqIdSOHcmd_bzMWNhx-6" value="Enter Account Details" style="whiteSpace=wrap;html=1;rounded=1;" vertex="1" parent="WIyWlLk6GJQsqaUBKTNV-1">
          <mxGeometry x="554" y="390" width="120" height="60" as="geometry" />
        </mxCell>
        <mxCell id="crBqIdSOHcmd_bzMWNhx-12" value="" style="edgeStyle=orthogonalEdgeStyle;rounded=0;orthogonalLoop=1;jettySize=auto;html=1;" edge="1" parent="WIyWlLk6GJQsqaUBKTNV-1" source="crBqIdSOHcmd_bzMWNhx-8">
          <mxGeometry relative="1" as="geometry">
            <mxPoint x="310" y="420" as="targetPoint" />
          </mxGeometry>
        </mxCell>
        <mxCell id="crBqIdSOHcmd_bzMWNhx-14" value="" style="edgeStyle=orthogonalEdgeStyle;rounded=0;orthogonalLoop=1;jettySize=auto;html=1;" edge="1" parent="WIyWlLk6GJQsqaUBKTNV-1" source="crBqIdSOHcmd_bzMWNhx-8" target="crBqIdSOHcmd_bzMWNhx-13">
          <mxGeometry relative="1" as="geometry" />
        </mxCell>
        <mxCell id="crBqIdSOHcmd_bzMWNhx-20" value="" style="edgeStyle=orthogonalEdgeStyle;rounded=0;orthogonalLoop=1;jettySize=auto;html=1;" edge="1" parent="WIyWlLk6GJQsqaUBKTNV-1" source="crBqIdSOHcmd_bzMWNhx-8" target="crBqIdSOHcmd_bzMWNhx-19">
          <mxGeometry relative="1" as="geometry" />
        </mxCell>
        <mxCell id="crBqIdSOHcmd_bzMWNhx-8" value="Home Page" style="whiteSpace=wrap;html=1;rounded=1;" vertex="1" parent="WIyWlLk6GJQsqaUBKTNV-1">
          <mxGeometry x="390" y="390" width="120" height="60" as="geometry" />
        </mxCell>
        <mxCell id="crBqIdSOHcmd_bzMWNhx-16" value="" style="edgeStyle=orthogonalEdgeStyle;rounded=0;orthogonalLoop=1;jettySize=auto;html=1;" edge="1" parent="WIyWlLk6GJQsqaUBKTNV-1" source="crBqIdSOHcmd_bzMWNhx-13" target="crBqIdSOHcmd_bzMWNhx-15">
          <mxGeometry relative="1" as="geometry" />
        </mxCell>
        <mxCell id="crBqIdSOHcmd_bzMWNhx-26" value="" style="edgeStyle=orthogonalEdgeStyle;rounded=0;orthogonalLoop=1;jettySize=auto;html=1;" edge="1" parent="WIyWlLk6GJQsqaUBKTNV-1" source="crBqIdSOHcmd_bzMWNhx-13" target="crBqIdSOHcmd_bzMWNhx-25">
          <mxGeometry relative="1" as="geometry" />
        </mxCell>
        <mxCell id="crBqIdSOHcmd_bzMWNhx-13" value="My&lt;br&gt;Patterns" style="rhombus;whiteSpace=wrap;html=1;rounded=1;" vertex="1" parent="WIyWlLk6GJQsqaUBKTNV-1">
          <mxGeometry x="210" y="380" width="80" height="80" as="geometry" />
        </mxCell>
        <mxCell id="crBqIdSOHcmd_bzMWNhx-18" value="" style="edgeStyle=orthogonalEdgeStyle;rounded=0;orthogonalLoop=1;jettySize=auto;html=1;" edge="1" parent="WIyWlLk6GJQsqaUBKTNV-1" source="crBqIdSOHcmd_bzMWNhx-15" target="crBqIdSOHcmd_bzMWNhx-17">
          <mxGeometry relative="1" as="geometry" />
        </mxCell>
        <mxCell id="crBqIdSOHcmd_bzMWNhx-28" value="" style="edgeStyle=orthogonalEdgeStyle;rounded=0;orthogonalLoop=1;jettySize=auto;html=1;" edge="1" parent="WIyWlLk6GJQsqaUBKTNV-1" source="crBqIdSOHcmd_bzMWNhx-15" target="crBqIdSOHcmd_bzMWNhx-27">
          <mxGeometry relative="1" as="geometry" />
        </mxCell>
        <mxCell id="crBqIdSOHcmd_bzMWNhx-15" value="Create&amp;nbsp;&lt;br&gt;Patterns" style="rhombus;whiteSpace=wrap;html=1;rounded=1;" vertex="1" parent="WIyWlLk6GJQsqaUBKTNV-1">
          <mxGeometry x="210" y="540" width="80" height="80" as="geometry" />
        </mxCell>
        <mxCell id="crBqIdSOHcmd_bzMWNhx-30" value="" style="edgeStyle=orthogonalEdgeStyle;rounded=0;orthogonalLoop=1;jettySize=auto;html=1;" edge="1" parent="WIyWlLk6GJQsqaUBKTNV-1" source="crBqIdSOHcmd_bzMWNhx-17" target="crBqIdSOHcmd_bzMWNhx-29">
          <mxGeometry relative="1" as="geometry" />
        </mxCell>
        <mxCell id="crBqIdSOHcmd_bzMWNhx-17" value="Edit Patterns" style="rhombus;whiteSpace=wrap;html=1;rounded=1;" vertex="1" parent="WIyWlLk6GJQsqaUBKTNV-1">
          <mxGeometry x="210" y="700" width="80" height="80" as="geometry" />
        </mxCell>
        <mxCell id="crBqIdSOHcmd_bzMWNhx-22" value="" style="edgeStyle=orthogonalEdgeStyle;rounded=0;orthogonalLoop=1;jettySize=auto;html=1;" edge="1" parent="WIyWlLk6GJQsqaUBKTNV-1" source="crBqIdSOHcmd_bzMWNhx-19">
          <mxGeometry relative="1" as="geometry">
            <mxPoint x="310" y="560" as="targetPoint" />
          </mxGeometry>
        </mxCell>
        <mxCell id="crBqIdSOHcmd_bzMWNhx-24" value="" style="edgeStyle=orthogonalEdgeStyle;rounded=0;orthogonalLoop=1;jettySize=auto;html=1;" edge="1" parent="WIyWlLk6GJQsqaUBKTNV-1" source="crBqIdSOHcmd_bzMWNhx-19" target="crBqIdSOHcmd_bzMWNhx-23">
          <mxGeometry relative="1" as="geometry" />
        </mxCell>
        <mxCell id="crBqIdSOHcmd_bzMWNhx-19" value="Drawing Mode" style="whiteSpace=wrap;html=1;rounded=1;" vertex="1" parent="WIyWlLk6GJQsqaUBKTNV-1">
          <mxGeometry x="390" y="530" width="120" height="60" as="geometry" />
        </mxCell>
        <mxCell id="crBqIdSOHcmd_bzMWNhx-32" value="" style="edgeStyle=orthogonalEdgeStyle;rounded=0;orthogonalLoop=1;jettySize=auto;html=1;" edge="1" parent="WIyWlLk6GJQsqaUBKTNV-1" source="crBqIdSOHcmd_bzMWNhx-23" target="crBqIdSOHcmd_bzMWNhx-31">
          <mxGeometry relative="1" as="geometry" />
        </mxCell>
        <mxCell id="crBqIdSOHcmd_bzMWNhx-23" value="Zenbed Settings&amp;nbsp;" style="whiteSpace=wrap;html=1;rounded=1;" vertex="1" parent="WIyWlLk6GJQsqaUBKTNV-1">
          <mxGeometry x="390" y="670" width="120" height="60" as="geometry" />
        </mxCell>
        <mxCell id="crBqIdSOHcmd_bzMWNhx-25" value="Pattern Casting&lt;br&gt;(Send sequence)" style="whiteSpace=wrap;html=1;rounded=1;" vertex="1" parent="WIyWlLk6GJQsqaUBKTNV-1">
          <mxGeometry x="30" y="390" width="120" height="60" as="geometry" />
        </mxCell>
        <mxCell id="crBqIdSOHcmd_bzMWNhx-27" value="Drawing Mode&lt;br&gt;(Create a new pattern by frame and name)" style="whiteSpace=wrap;html=1;rounded=1;" vertex="1" parent="WIyWlLk6GJQsqaUBKTNV-1">
          <mxGeometry x="30" y="550" width="120" height="60" as="geometry" />
        </mxCell>
        <mxCell id="crBqIdSOHcmd_bzMWNhx-29" value="Drawing Mode (Edit current pattern and pattern sequence)" style="whiteSpace=wrap;html=1;rounded=1;" vertex="1" parent="WIyWlLk6GJQsqaUBKTNV-1">
          <mxGeometry x="30" y="710" width="120" height="60" as="geometry" />
        </mxCell>
        <mxCell id="crBqIdSOHcmd_bzMWNhx-31" value="App Settings" style="whiteSpace=wrap;html=1;rounded=1;" vertex="1" parent="WIyWlLk6GJQsqaUBKTNV-1">
          <mxGeometry x="390" y="810" width="120" height="60" as="geometry" />
        </mxCell>
      </root>
    </mxGraphModel>
  </diagram>
</mxfile>
